<svg width="80" height="56" viewBox="0 0 80 56" fill="none" xmlns="http://www.w3.org/2000/svg">
<path d="M64.0055 41.127C64.0055 46.2384 64.0055 50.8707 64.0055 55.7512C42.6484 55.7512 21.5892 55.7512 0.26178 55.7512C0.26178 37.3402 0.26178 18.9459 0.26178 0.272461C21.3033 0.272461 42.3627 0.272461 63.771 0.272461C63.771 4.96607 63.771 9.72598 63.771 15.2758C69.3836 12.7877 74.424 10.5534 79.774 8.18174C79.774 18.7301 79.774 28.9555 79.774 39.8056C74.6119 37.5042 69.6098 35.274 64.0055 32.7755C64.0055 35.7971 64.0055 38.2224 64.0055 41.127ZM59.9947 13.4447C59.9947 10.3484 59.9947 7.25208 59.9947 4.32375C40.9661 4.32375 22.5682 4.32375 4.32901 4.32375C4.32901 20.3764 4.32901 36.1089 4.32901 51.667C23.0523 51.667 41.4505 51.667 60.1648 51.667C60.1648 43.2682 60.1648 35.1947 60.1648 26.6499C65.5255 28.9899 70.4575 31.1427 75.659 33.4132C75.659 26.9408 75.659 20.9616 75.659 14.5687C70.3016 16.912 65.37 19.069 59.9947 21.4201C59.9947 18.6811 59.9947 16.5415 59.9947 13.4447Z" fill="#F1F1F1"/>
<rect x="28" y="12" width="8" height="32" fill="#F1F1F1"/>
<rect x="48" y="24" width="8" height="32" transform="rotate(90 48 24)" fill="#F1F1F1"/>
</svg>
