<svg width="65" height="80" viewBox="0 0 65 80" fill="none" xmlns="http://www.w3.org/2000/svg">
<path d="M32 80C36.4183 80 40 76.4183 40 72H24C24 76.4183 27.5817 80 32 80Z" fill="#F7F7F7"/>
<path d="M32 -6.99382e-07C27.5817 -1.08564e-06 24 3.58172 24 8L40 8C40 3.58172 36.4183 -3.13124e-07 32 -6.99382e-07Z" fill="#F7F7F7"/>
<path d="M37 5.5C39.5 11 44.5 10.4697 48.9503 14.8621C54.0216 19.1197 55.8044 25.3337 56.0333 31.8344C56.2383 37.6561 56.2961 43.4962 56.0707 49.3146C55.9439 52.5874 56.6849 55.0551 59.493 56.9367C63.2139 59.4299 65.2773 62.7618 63.8201 67.6958C42.8551 67.6958 21.7667 67.6958 0.493687 67.6958C-0.597658 63.7456 -0.0228403 60.3948 3.67017 57.938C7.31512 55.5131 8.36719 52.136 8.22595 47.7443C8.00755 40.9534 8.06059 34.0761 8.90544 27.3493C9.86844 19.6818 14.121 13.8987 21.3233 10.4697C22.4655 9.92593 29.6439 8.18142 30 6.99997C32.2457 -0.450839 29.4277 2.21765 37 5.5ZM17.6428 63.903C31.7005 63.903 45.7583 63.903 59.816 63.903V63.903C60.2321 63.2087 59.472 62.1449 58.8699 61.604C58.2975 61.0898 57.794 60.5775 57.0254 60.0677C53.083 57.4528 51.6117 53.9675 51.9964 49.1158C52.4557 43.324 52.2655 37.4537 51.9829 31.6356C51.4133 19.9078 42.9575 11.671 31.9071 11.7772C21.0857 11.8813 12.8771 20.0686 12.2455 31.5789C12.0176 35.7324 11.7785 39.9479 12.2225 44.0619C12.994 51.2088 11.8844 57.3766 5.98473 61.741C5.23285 62.2972 4.68625 62.9906 4.48092 63.903V63.903C8.67679 63.903 12.6643 63.903 17.6428 63.903Z" fill="#F7F7F7"/>
<rect x="24" y="8" width="16" height="3" fill="#F7F7F7"/>
</svg>
