<svg width="66" height="82" viewBox="0 0 66 82" fill="none" xmlns="http://www.w3.org/2000/svg">
<path d="M37.8879 44.8009C33.645 47.016 29.7511 49.0925 25.3663 51.4307C25.3663 44.3687 25.3663 37.7706 25.3663 30.6553C31.7266 33.9847 37.9176 37.2256 44.9945 40.9302C42.3462 42.3928 40.2916 43.5276 37.8879 44.8009Z" fill="#F6F6F6"/>
<path d="M4.44317 75.4822C-2.00585 65.0749 -0.0721159 59.8784 12.7426 50.3853C9.3681 47.0435 5.03277 44.0966 2.58672 40.017C-1.21807 33.6712 1.21781 25.547 7.7143 21.8285C19.5056 15.0793 31.4449 8.54596 43.6228 2.53063C51.4048 -1.31333 59.8609 2.08528 63.4992 9.47642C67.1121 16.8158 64.27 25.0738 56.6253 29.4374C55.2252 30.2366 53.8157 31.0196 51.8472 32.127C53.9261 33.1946 55.4821 33.9223 56.9702 34.7693C67.4567 40.7376 67.9178 54.8755 57.4689 60.8586C46.1122 67.3615 34.4417 73.3304 22.7816 79.2846C16.0145 82.7402 9.8999 81.143 4.44317 75.4822ZM57.9091 8.58036C54.2027 4.71749 49.6047 4.0306 45.1297 6.2967C33.3059 12.2842 21.5072 18.3704 10.0663 25.0473C2.82757 29.2718 3.51513 39.3654 10.827 43.5721C12.5403 44.5578 14.6151 44.9484 16.2484 46.0289C17.4149 46.8006 18.7827 48.2315 18.8483 49.4345C18.9146 50.6511 17.7533 52.2939 16.6578 53.1357C14.7058 54.6356 12.296 55.5247 10.2598 56.9327C5.33858 60.3355 3.80101 65.9813 6.27435 70.9186C8.77822 75.9169 14.9357 78.4779 20.3065 75.8099C32.3235 69.8402 44.293 63.7145 55.8833 56.9678C63.3476 52.6229 62.4613 42.2646 54.8145 38.2575C53.0593 37.3377 51.1105 36.7949 49.3144 35.9444C46.1365 34.4395 45.838 30.9879 48.7602 29.0901C50.5596 27.9215 52.5602 27.068 54.4121 25.9742C61.2322 21.946 62.5943 16.0678 57.9091 8.58036Z" fill="#ECECEC"/>
</svg>
